<svg data-v-fde0c5aa="" xmlns="http://www.w3.org/2000/svg" viewBox="0 0 50 50" class="iconLeft"><!----><defs data-v-fde0c5aa=""><!----></defs><rect data-v-fde0c5aa="" fill="transparent" x="0" y="0" width="200px" height="200px" class="logo-background-square"></rect><defs data-v-fde0c5aa=""><!----></defs><g data-v-fde0c5aa="" id="7fb9e8c9-f500-443f-a9de-42e7ca20fa04" fill="#000000"><path d=""></path></g><defs data-v-fde0c5aa=""><!----></defs><g data-v-fde0c5aa="" id="84cc0ebc-c92b-4c11-ac03-97d86719ef13" stroke="none" fill="#FFFFFF"><path d="M46.4 56.3c-.4.2-.9.4-1.4.4s-1-.1-1.4-.4l-10.3-4.8v4.4c0 1.6 1.3 2.8 2.8 2.8h17.7c1.6 0 2.8-1.3 2.8-2.8V51l-10.2 5.3z"></path><path d="M62.7 39.4l-.1-.1c-.1-.1-.3-.1-.4-.2l-15.8-7.4c-.4-.2-.9-.4-1.4-.4s-1 .1-1.4.4l-16.3 8.5c-1 .6-1.6 1.6-1.6 2.9s.6 2.3 1.6 2.9l.1.1c.1.1.3.1.4.2l15.8 7.4c.4.2.9.3 1.4.3s1-.1 1.4-.4l13.1-6.8v11.8h2.1V45.7l1.2-.6c1-.6 1.6-1.6 1.6-2.9s-.7-2.3-1.7-2.8z"></path></g><!----></svg>