<svg data-v-fde0c5aa="" xmlns="http://www.w3.org/2000/svg" viewBox="0 0 100 100" class="iconLeft"><!----><defs data-v-fde0c5aa=""><!----></defs><rect data-v-fde0c5aa="" fill="transparent" x="0" y="0" width="100px" height="100px" class="logo-background-square"></rect><defs data-v-fde0c5aa=""><!----></defs><g data-v-fde0c5aa="" id="5f264e35-0ef1-4c48-81ab-ee6d71b7936c" fill="#000000"><path d=""></path></g><defs data-v-fde0c5aa=""><!----></defs><g data-v-fde0c5aa="" id="8c2f53ad-b829-43a8-895f-6cd916081713" stroke="none" fill="#FFFFFF"><path d="M59.402 24.168l6.729-18.486a46.734 46.734 0 0 0-7.942-2.123l-3.416 19.379c1.592.279 3.142.688 4.629 1.23z"></path><path d="M77.483 50c0 15.178-12.306 27.483-27.483 27.483-15.179 0-27.483-12.306-27.483-27.483 0-15.179 12.305-27.483 27.483-27.483V2.849C23.959 2.849 2.849 23.958 2.849 50 2.849 76.04 23.96 97.151 50 97.151c26.04 0 47.151-21.111 47.151-47.151H77.483z"></path><path d="M67.663 28.95l12.645-15.068a47.366 47.366 0 0 0-6.729-4.721l-9.839 17.04a27.602 27.602 0 0 1 3.923 2.749zM77.063 45.228l19.379-3.417a46.857 46.857 0 0 0-2.122-7.941l-18.487 6.728a27.59 27.59 0 0 1 1.23 4.63zM73.799 36.26l17.04-9.838a47.333 47.333 0 0 0-4.721-6.729L71.05 32.337a27.626 27.626 0 0 1 2.749 3.923z"></path></g><!----></svg>