<svg data-v-fde0c5aa="" xmlns="http://www.w3.org/2000/svg" viewBox="0 0 300 300" class="iconLeft"><!----><defs data-v-fde0c5aa=""><!----></defs><rect data-v-fde0c5aa="" fill="transparent" x="0" y="0" width="100px" height="100px" class="logo-background-square"></rect><defs data-v-fde0c5aa=""><!----></defs><g data-v-fde0c5aa="" id="2130376f-8307-4260-bd49-32a1141f1ed2" fill="#000000"><path d=""></path></g><defs data-v-fde0c5aa=""><!----></defs><g data-v-fde0c5aa="" id="d5817fce-b624-40a7-83af-4c0bac15feef" stroke="none" fill="#FFFFFF"><path d="M85.615 33.042c-.005-3.398-2.774-6.162-6.177-6.162h-8.122c-4.863 0-8.817-3.956-8.817-8.817V8.892c0-3.338-2.663-6.045-5.97-6.157H30.916c-4 0-7.251 3.252-7.251 7.251v70.675c0 3.998 3.252 7.25 7.251 7.25h47.522c3.997 0 7.253-3.252 7.253-7.25V33.055h-.075l-.001-.013z"></path><path d="M76.566 97.265H29.044c-8.124 0-14.734-6.608-14.734-14.732V11.857h5.612v70.675c0 5.029 4.092 9.12 9.122 9.12h47.522v5.613zM66.004 17.197a6.238 6.238 0 0 0 6.229 6.232h7.175a8.85 8.85 0 0 1 3.922.912 30.572 30.572 0 0 0-4.03-5.688L68.956 7.822a21.028 21.028 0 0 0-3.954-2.951 8.826 8.826 0 0 1 1.002 4.094v8.232z"></path></g><!----></svg>