<svg data-v-fde0c5aa="" xmlns="http://www.w3.org/2000/svg" viewBox="0 0 100 100" class="iconLeft"><!----><defs data-v-fde0c5aa=""><!----></defs><rect data-v-fde0c5aa="" fill="transparent" x="0" y="0" width="100px" height="100px" class="logo-background-square"></rect><defs data-v-fde0c5aa=""><!----></defs><g data-v-fde0c5aa="" id="b26b76bf-9ed9-4a19-89a0-641a2cca62f3" fill="black" x="30"><path d=""></path></g><defs data-v-fde0c5aa=""><!----></defs><g data-v-fde0c5aa="" id="62b36bac-f4a5-47bc-a2d4-98041ead6dd0" stroke="none" fill="#FFFFFF"><path d="M33.271 34.027v-5.042h4.512v-9.509H40.6V0H6.204v19.476h2.819v9.509h4.51v5.042S0 35.154 0 52.071c0 16.914 17.479 27.51 17.479 46.117L20.863 100h.781V60.683a5.418 5.418 0 0 1-3.685-5.129 5.44 5.44 0 1 1 10.882 0c0 2.486-1.675 4.553-3.951 5.201V100h1.05l3.384-1.812c0-18.607 17.479-29.203 17.479-46.117.001-16.917-13.532-18.044-13.532-18.044z"></path></g><!----></svg>