<svg data-v-fde0c5aa="" xmlns="http://www.w3.org/2000/svg" viewBox="0 0 100 100" class="iconLeft"><!----><defs data-v-fde0c5aa=""><!----></defs><rect data-v-fde0c5aa="" fill="transparent" x="0" y="0" width="100px" height="100px" class="logo-background-square"></rect><defs data-v-fde0c5aa=""><!----></defs><g data-v-fde0c5aa="" id="644765b7-b743-48a5-924b-96c2f488f3af" fill="#000000"><path d=""></path></g><defs data-v-fde0c5aa=""><!----></defs><g data-v-fde0c5aa="" id="a837169b-dadd-4046-a624-48331224c0dc" stroke="none" fill="#FFFFFF"><path d="M98 41.108c0-4.928-3.599-9.01-8.315-9.781a.085.085 0 0 0-.034-.027l-21.014-2.83-9.212-18.667c-1.432-3.726-5.032-6.379-9.264-6.379-4.385 0-8.102 2.844-9.414 6.789L31.906 28.47l-20.562 2.716a.566.566 0 0 1-.008.04c-5.06.463-9.021 4.711-9.021 9.883 0 3.264 1.578 6.148 4.005 7.964l14.238 14.334-3.461 19.008a.336.336 0 0 0 .033.016 9.86 9.86 0 0 0-.598 3.363c0 5.484 4.445 9.93 9.933 9.93 1.855 0 3.59-.517 5.082-1.409l18.725-9.319 17.992 9.01a9.89 9.89 0 0 0 5.593 1.719c5.482 0 9.927-4.445 9.927-9.93 0-.286-.021-.574-.046-.862.019-.01.028-.021.046-.037l-3.795-21.487 14.624-14.735c-.001-.013-.021-.039-.039-.068A9.912 9.912 0 0 0 98 41.108z"></path></g><!----></svg>