<svg data-v-fde0c5aa="" xmlns="http://www.w3.org/2000/svg" viewBox="0 0 300 300" class="iconLeftSlogan"><!----><defs data-v-fde0c5aa=""><!----></defs><rect data-v-fde0c5aa="" fill="#FFF" x="0" y="0" width="300px" height="300px" class="logo-background-square"></rect><defs data-v-fde0c5aa=""><!----></defs><g data-v-fde0c5aa="" id="dc586018-fa74-4918-8b60-8bd0dc57514d" fill="#FFFFFF" transform="matrix(1.3138130722024919,0,0,1.3138130722024919,88.53425674247592,128.26764917752527)"><path d="M9.97 8.19L9.97 8.19L9.97 8.19Q9.97 9.44 9.60 10.39L9.60 10.39L9.60 10.39Q9.24 11.34 8.62 11.98L8.62 11.98L8.62 11.98Q7.99 12.61 7.17 12.94L7.17 12.94L7.17 12.94Q6.34 13.26 5.42 13.26L5.42 13.26L5.42 13.26Q4.49 13.26 3.67 12.94L3.67 12.94L3.67 12.94Q2.84 12.61 2.22 11.98L2.22 11.98L2.22 11.98Q1.60 11.34 1.23 10.39L1.23 10.39L1.23 10.39Q0.87 9.44 0.87 8.19L0.87 8.19L0.87 8.19Q0.87 6.94 1.23 6.00L1.23 6.00L1.23 6.00Q1.60 5.05 2.22 4.42L2.22 4.42L2.22 4.42Q2.84 3.78 3.67 3.46L3.67 3.46L3.67 3.46Q4.49 3.14 5.42 3.14L5.42 3.14L5.42 3.14Q6.34 3.14 7.17 3.46L7.17 3.46L7.17 3.46Q7.99 3.78 8.62 4.42L8.62 4.42L8.62 4.42Q9.24 5.05 9.60 6.00L9.60 6.00L9.60 6.00Q9.97 6.94 9.97 8.19ZM8.96 8.19L8.96 8.19L8.96 8.19Q8.96 7.21 8.71 6.43L8.71 6.43L8.71 6.43Q8.46 5.66 7.99 5.11L7.99 5.11L7.99 5.11Q7.53 4.56 6.88 4.28L6.88 4.28L6.88 4.28Q6.23 3.99 5.42 3.99L5.42 3.99L5.42 3.99Q4.61 3.99 3.96 4.28L3.96 4.28L3.96 4.28Q3.30 4.56 2.84 5.11L2.84 5.11L2.84 5.11Q2.38 5.66 2.13 6.43L2.13 6.43L2.13 6.43Q1.88 7.21 1.88 8.19L1.88 8.19L1.88 8.19Q1.88 9.17 2.13 9.95L2.13 9.95L2.13 9.95Q2.38 10.72 2.84 11.27L2.84 11.27L2.84 11.27Q3.30 11.82 3.96 12.11L3.96 12.11L3.96 12.11Q4.61 12.40 5.42 12.40L5.42 12.40L5.42 12.40Q6.23 12.40 6.88 12.11L6.88 12.11L6.88 12.11Q7.53 11.82 7.99 11.27L7.99 11.27L7.99 11.27Q8.46 10.72 8.71 9.95L8.71 9.95L8.71 9.95Q8.96 9.17 8.96 8.19ZM15.04 13.20L15.04 13.20L15.04 13.20Q14.20 13.20 13.55 12.94L13.55 12.94L13.55 12.94Q12.91 12.67 12.48 12.17L12.48 12.17L12.48 12.17Q12.05 11.68 11.83 10.98L11.83 10.98L11.83 10.98Q11.61 10.29 11.61 9.45L11.61 9.45L11.61 9.45Q11.61 8.60 11.84 7.90L11.84 7.90L11.84 7.90Q12.07 7.20 12.50 6.69L12.50 6.69L12.50 6.69Q12.94 6.19 13.55 5.92L13.55 5.92L13.55 5.92Q14.17 5.64 14.94 5.64L14.94 5.64L14.94 5.64Q15.53 5.64 16.04 5.74L16.04 5.74L16.04 5.74Q16.55 5.84 16.83 5.99L16.83 5.99L16.59 6.78L16.59 6.78Q16.31 6.64 15.96 6.55L15.96 6.55L15.96 6.55Q15.61 6.47 15.02 6.47L15.02 6.47L15.02 6.47Q13.82 6.47 13.20 7.25L13.20 7.25L13.20 7.25Q12.57 8.02 12.57 9.45L12.57 9.45L12.57 9.45Q12.57 10.09 12.71 10.63L12.71 10.63L12.71 10.63Q12.85 11.17 13.17 11.56L13.17 11.56L13.17 11.56Q13.48 11.94 13.98 12.16L13.98 12.16L13.98 12.16Q14.48 12.38 15.19 12.38L15.19 12.38L15.19 12.38Q15.78 12.38 16.18 12.24L16.18 12.24L16.18 12.24Q16.58 12.11 16.76 12.01L16.76 12.01L16.95 12.80L16.95 12.80Q16.70 12.94 16.16 13.07L16.16 13.07L16.16 13.07Q15.62 13.20 15.04 13.20ZM18.05 9.42L18.05 9.42L18.05 9.42Q18.05 8.47 18.32 7.76L18.32 7.76L18.32 7.76Q18.59 7.06 19.03 6.58L19.03 6.58L19.03 6.58Q19.47 6.10 20.04 5.87L20.04 5.87L20.04 5.87Q20.61 5.64 21.21 5.64L21.21 5.64L21.21 5.64Q22.54 5.64 23.33 6.51L23.33 6.51L23.33 6.51Q24.12 7.38 24.12 9.18L24.12 9.18L24.12 9.18Q24.12 9.30 24.12 9.41L24.12 9.41L24.12 9.41Q24.11 9.52 24.09 9.62L24.09 9.62L19.01 9.62L19.01 9.62Q19.05 10.95 19.67 11.66L19.67 11.66L19.67 11.66Q20.29 12.38 21.63 12.38L21.63 12.38L21.63 12.38Q22.37 12.38 22.81 12.24L22.81 12.24L22.81 12.24Q23.24 12.10 23.44 12.00L23.44 12.00L23.60 12.78L23.60 12.78Q23.41 12.89 22.87 13.05L22.87 13.05L22.87 13.05Q22.33 13.20 21.60 13.20L21.60 13.20L21.60 13.20Q20.65 13.20 19.98 12.92L19.98 12.92L19.98 12.92Q19.31 12.64 18.87 12.14L18.87 12.14L18.87 12.14Q18.44 11.63 18.24 10.94L18.24 10.94L18.24 10.94Q18.05 10.25 18.05 9.42ZM19.04 8.85L23.18 8.85L23.18 8.85Q23.16 7.71 22.65 7.08L22.65 7.08L22.65 7.08Q22.15 6.45 21.22 6.45L21.22 6.45L21.22 6.45Q20.73 6.45 20.35 6.65L20.35 6.65L20.35 6.65Q19.96 6.85 19.68 7.17L19.68 7.17L19.68 7.17Q19.39 7.50 19.23 7.94L19.23 7.94L19.23 7.94Q19.07 8.37 19.04 8.85L19.04 8.85ZM28.43 12.39L28.43 12.39L28.43 12.39Q28.97 12.39 29.37 12.36L29.37 12.36L29.37 12.36Q29.76 12.32 30.04 12.26L30.04 12.26L30.04 9.72L30.04 9.72Q29.89 9.65 29.55 9.57L29.55 9.57L29.55 9.57Q29.22 9.49 28.63 9.49L28.63 9.49L28.63 9.49Q28.29 9.49 27.93 9.54L27.93 9.54L27.93 9.54Q27.57 9.59 27.26 9.75L27.26 9.75L27.26 9.75Q26.95 9.91 26.75 10.19L26.75 10.19L26.75 10.19Q26.56 10.47 26.56 10.93L26.56 10.93L26.56 10.93Q26.56 11.34 26.69 11.62L26.69 11.62L26.69 11.62Q26.82 11.90 27.07 12.07L27.07 12.07L27.07 12.07Q27.31 12.24 27.66 12.31L27.66 12.31L27.66 12.31Q28 12.39 28.43 12.39ZM28.35 5.64L28.35 5.64L28.35 5.64Q29.06 5.64 29.56 5.84L29.56 5.84L29.56 5.84Q30.06 6.05 30.37 6.41L30.37 6.41L30.37 6.41Q30.67 6.76 30.81 7.25L30.81 7.25L30.81 7.25Q30.95 7.74 30.95 8.32L30.95 8.32L30.95 12.88L30.95 12.88Q30.81 12.92 30.55 12.97L30.55 12.97L30.55 12.97Q30.28 13.02 29.93 13.08L29.93 13.08L29.93 13.08Q29.58 13.13 29.16 13.17L29.16 13.17L29.16 13.17Q28.73 13.20 28.28 13.20L28.28 13.20L28.28 13.20Q27.71 13.20 27.22 13.08L27.22 13.08L27.22 13.08Q26.74 12.95 26.38 12.68L26.38 12.68L26.38 12.68Q26.03 12.40 25.82 11.98L25.82 11.98L25.82 11.98Q25.62 11.55 25.62 10.93L25.62 10.93L25.62 10.93Q25.62 10.35 25.84 9.93L25.84 9.93L25.84 9.93Q26.07 9.51 26.47 9.23L26.47 9.23L26.47 9.23Q26.88 8.96 27.44 8.83L27.44 8.83L27.44 8.83Q28 8.71 28.66 8.71L28.66 8.71L28.66 8.71Q28.85 8.71 29.07 8.73L29.07 8.73L29.07 8.73Q29.29 8.75 29.49 8.79L29.49 8.79L29.49 8.79Q29.69 8.82 29.84 8.86L29.84 8.86L29.84 8.86Q29.99 8.89 30.04 8.92L30.04 8.92L30.04 8.47L30.04 8.47Q30.04 8.09 29.99 7.74L29.99 7.74L29.99 7.74Q29.93 7.38 29.74 7.09L29.74 7.09L29.74 7.09Q29.55 6.80 29.21 6.63L29.21 6.63L29.21 6.63Q28.87 6.45 28.31 6.45L28.31 6.45L28.31 6.45Q27.51 6.45 27.12 6.57L27.12 6.57L27.12 6.57Q26.73 6.68 26.54 6.75L26.54 6.75L26.42 5.95L26.42 5.95Q26.66 5.84 27.15 5.74L27.15 5.74L27.15 5.74Q27.65 5.64 28.35 5.64ZM33.28 13.05L33.28 6.06L33.28 6.06Q33.68 5.95 34.37 5.81L34.37 5.81L34.37 5.81Q35.06 5.67 36.05 5.67L36.05 5.67L36.05 5.67Q36.88 5.67 37.43 5.91L37.43 5.91L37.43 5.91Q37.98 6.15 38.31 6.59L38.31 6.59L38.31 6.59Q38.64 7.03 38.78 7.64L38.78 7.64L38.78 7.64Q38.92 8.26 38.92 9.00L38.92 9.00L38.92 13.05L38.01 13.05L38.01 9.30L38.01 9.30Q38.01 8.53 37.91 7.99L37.91 7.99L37.91 7.99Q37.80 7.46 37.55 7.13L37.55 7.13L37.55 7.13Q37.31 6.79 36.91 6.64L36.91 6.64L36.91 6.64Q36.51 6.50 35.91 6.50L35.91 6.50L35.91 6.50Q35.27 6.50 34.80 6.57L34.80 6.57L34.80 6.57Q34.33 6.64 34.19 6.69L34.19 6.69L34.19 13.05L33.28 13.05ZM43.53 12.39L43.53 12.39L43.53 12.39Q44.06 12.39 44.46 12.36L44.46 12.36L44.46 12.36Q44.86 12.32 45.14 12.26L45.14 12.26L45.14 9.72L45.14 9.72Q44.98 9.65 44.65 9.57L44.65 9.57L44.65 9.57Q44.31 9.49 43.72 9.49L43.72 9.49L43.72 9.49Q43.39 9.49 43.02 9.54L43.02 9.54L43.02 9.54Q42.66 9.59 42.35 9.75L42.35 9.75L42.35 9.75Q42.04 9.91 41.85 10.19L41.85 10.19L41.85 10.19Q41.65 10.47 41.65 10.93L41.65 10.93L41.65 10.93Q41.65 11.34 41.78 11.62L41.78 11.62L41.78 11.62Q41.92 11.90 42.16 12.07L42.16 12.07L42.16 12.07Q42.41 12.24 42.75 12.31L42.75 12.31L42.75 12.31Q43.09 12.39 43.53 12.39ZM43.44 5.64L43.44 5.64L43.44 5.64Q44.16 5.64 44.65 5.84L44.65 5.84L44.65 5.84Q45.15 6.05 45.46 6.41L45.46 6.41L45.46 6.41Q45.77 6.76 45.91 7.25L45.91 7.25L45.91 7.25Q46.05 7.74 46.05 8.32L46.05 8.32L46.05 12.88L46.05 12.88Q45.91 12.92 45.64 12.97L45.64 12.97L45.64 12.97Q45.37 13.02 45.02 13.08L45.02 13.08L45.02 13.08Q44.67 13.13 44.25 13.17L44.25 13.17L44.25 13.17Q43.82 13.20 43.37 13.20L43.37 13.20L43.37 13.20Q42.80 13.20 42.31 13.08L42.31 13.08L42.31 13.08Q41.83 12.95 41.48 12.68L41.48 12.68L41.48 12.68Q41.12 12.40 40.91 11.98L40.91 11.98L40.91 11.98Q40.71 11.55 40.71 10.93L40.71 10.93L40.71 10.93Q40.71 10.35 40.94 9.93L40.94 9.93L40.94 9.93Q41.16 9.51 41.57 9.23L41.57 9.23L41.57 9.23Q41.97 8.96 42.53 8.83L42.53 8.83L42.53 8.83Q43.09 8.71 43.75 8.71L43.75 8.71L43.75 8.71Q43.95 8.71 44.16 8.73L44.16 8.73L44.16 8.73Q44.38 8.75 44.58 8.79L44.58 8.79L44.58 8.79Q44.79 8.82 44.93 8.86L44.93 8.86L44.93 8.86Q45.08 8.89 45.14 8.92L45.14 8.92L45.14 8.47L45.14 8.47Q45.14 8.09 45.08 7.74L45.08 7.74L45.08 7.74Q45.02 7.38 44.84 7.09L44.84 7.09L44.84 7.09Q44.65 6.80 44.30 6.63L44.30 6.63L44.30 6.63Q43.96 6.45 43.40 6.45L43.40 6.45L43.40 6.45Q42.60 6.45 42.21 6.57L42.21 6.57L42.21 6.57Q41.82 6.68 41.64 6.75L41.64 6.75L41.51 5.95L41.51 5.95Q41.75 5.84 42.24 5.74L42.24 5.74L42.24 5.74Q42.74 5.64 43.44 5.64ZM56.41 4.54L57.23 4.54L57.23 4.54Q57.90 6.79 58.58 8.62L58.58 8.62L58.58 8.62Q59.26 10.44 59.91 11.97L59.91 11.97L59.91 11.97Q60.40 10.32 60.88 8.08L60.88 8.08L60.88 8.08Q61.36 5.84 61.81 3.35L61.81 3.35L62.75 3.35L62.75 3.35Q62.50 4.84 62.24 6.15L62.24 6.15L62.24 6.15Q61.98 7.46 61.70 8.64L61.70 8.64L61.70 8.64Q61.42 9.83 61.11 10.91L61.11 10.91L61.11 10.91Q60.80 12.00 60.44 13.05L60.44 13.05L59.42 13.05L59.42 13.05Q59.08 12.25 58.75 11.45L58.75 11.45L58.75 11.45Q58.42 10.65 58.10 9.81L58.10 9.81L58.10 9.81Q57.78 8.96 57.46 8.04L57.46 8.04L57.46 8.04Q57.13 7.11 56.80 6.08L56.80 6.08L56.80 6.08Q56.46 7.11 56.13 8.04L56.13 8.04L56.13 8.04Q55.80 8.96 55.48 9.81L55.48 9.81L55.48 9.81Q55.16 10.65 54.83 11.45L54.83 11.45L54.83 11.45Q54.50 12.25 54.17 13.05L54.17 13.05L53.16 13.05L53.16 13.05Q52.78 12.00 52.46 10.91L52.46 10.91L52.46 10.91Q52.15 9.83 51.88 8.64L51.88 8.64L51.88 8.64Q51.60 7.46 51.36 6.15L51.36 6.15L51.36 6.15Q51.11 4.84 50.86 3.35L50.86 3.35L51.84 3.35L51.84 3.35Q52.05 4.58 52.28 5.76L52.28 5.76L52.28 5.76Q52.50 6.94 52.74 8.05L52.74 8.05L52.74 8.05Q52.99 9.16 53.25 10.14L53.25 10.14L53.25 10.14Q53.51 11.13 53.76 11.97L53.76 11.97L53.76 11.97Q54.36 10.42 55.05 8.60L55.05 8.60L55.05 8.60Q55.73 6.79 56.41 4.54L56.41 4.54ZM64.02 9.42L64.02 9.42L64.02 9.42Q64.02 8.47 64.30 7.76L64.30 7.76L64.30 7.76Q64.57 7.06 65.01 6.58L65.01 6.58L65.01 6.58Q65.45 6.10 66.02 5.87L66.02 5.87L66.02 5.87Q66.58 5.64 67.19 5.64L67.19 5.64L67.19 5.64Q68.52 5.64 69.31 6.51L69.31 6.51L69.31 6.51Q70.10 7.38 70.10 9.18L70.10 9.18L70.10 9.18Q70.10 9.30 70.09 9.41L70.09 9.41L70.09 9.41Q70.08 9.52 70.07 9.62L70.07 9.62L64.99 9.62L64.99 9.62Q65.03 10.95 65.65 11.66L65.65 11.66L65.65 11.66Q66.26 12.38 67.61 12.38L67.61 12.38L67.61 12.38Q68.35 12.38 68.78 12.24L68.78 12.24L68.78 12.24Q69.22 12.10 69.41 12.00L69.41 12.00L69.58 12.78L69.58 12.78Q69.38 12.89 68.84 13.05L68.84 13.05L68.84 13.05Q68.31 13.20 67.58 13.20L67.58 13.20L67.58 13.20Q66.63 13.20 65.95 12.92L65.95 12.92L65.95 12.92Q65.28 12.64 64.85 12.14L64.85 12.14L64.85 12.14Q64.41 11.63 64.22 10.94L64.22 10.94L64.22 10.94Q64.02 10.25 64.02 9.42ZM65.02 8.85L69.16 8.85L69.16 8.85Q69.13 7.71 68.63 7.08L68.63 7.08L68.63 7.08Q68.12 6.45 67.20 6.45L67.20 6.45L67.20 6.45Q66.71 6.45 66.32 6.65L66.32 6.65L66.32 6.65Q65.94 6.85 65.65 7.17L65.65 7.17L65.65 7.17Q65.37 7.50 65.20 7.94L65.20 7.94L65.20 7.94Q65.04 8.37 65.02 8.85L65.02 8.85ZM73.04 2.18L73.04 6.24L73.04 6.24Q73.28 6.06 73.80 5.86L73.80 5.86L73.80 5.86Q74.33 5.66 75.04 5.66L75.04 5.66L75.04 5.66Q75.82 5.66 76.43 5.94L76.43 5.94L76.43 5.94Q77.04 6.22 77.46 6.72L77.46 6.72L77.46 6.72Q77.88 7.22 78.10 7.92L78.10 7.92L78.10 7.92Q78.32 8.61 78.32 9.44L78.32 9.44L78.32 9.44Q78.32 10.32 78.06 11.02L78.06 11.02L78.06 11.02Q77.80 11.72 77.33 12.21L77.33 12.21L77.33 12.21Q76.86 12.70 76.21 12.96L76.21 12.96L76.21 12.96Q75.56 13.22 74.76 13.22L74.76 13.22L74.76 13.22Q73.79 13.22 73.16 13.09L73.16 13.09L73.16 13.09Q72.53 12.96 72.13 12.82L72.13 12.82L72.13 2.35L73.04 2.18ZM73.04 7.13L73.04 12.19L73.04 12.19Q73.25 12.26 73.66 12.33L73.66 12.33L73.66 12.33Q74.07 12.39 74.75 12.39L74.75 12.39L74.75 12.39Q75.92 12.39 76.64 11.63L76.64 11.63L76.64 11.63Q77.35 10.86 77.35 9.44L77.35 9.44L77.35 9.44Q77.35 8.83 77.22 8.29L77.22 8.29L77.22 8.29Q77.10 7.76 76.82 7.36L76.82 7.36L76.82 7.36Q76.54 6.96 76.08 6.72L76.08 6.72L76.08 6.72Q75.63 6.48 74.96 6.48L74.96 6.48L74.96 6.48Q74.63 6.48 74.34 6.54L74.34 6.54L74.34 6.54Q74.05 6.61 73.79 6.71L73.79 6.71L73.79 6.71Q73.54 6.80 73.35 6.92L73.35 6.92L73.35 6.92Q73.16 7.03 73.04 7.13L73.04 7.13ZM91.24 8.19L91.24 8.19L91.24 8.19Q91.24 9.44 90.85 10.36L90.85 10.36L90.85 10.36Q90.45 11.28 89.75 11.90L89.75 11.90L89.75 11.90Q89.04 12.52 88.06 12.82L88.06 12.82L88.06 12.82Q87.08 13.13 85.90 13.13L85.90 13.13L85.90 13.13Q85.32 13.13 84.67 13.07L84.67 13.07L84.67 13.07Q84.03 13.01 83.54 12.88L83.54 12.88L83.54 3.53L83.54 3.53Q84.03 3.39 84.67 3.32L84.67 3.32L84.67 3.32Q85.32 3.26 85.90 3.26L85.90 3.26L85.90 3.26Q87.08 3.26 88.06 3.57L88.06 3.57L88.06 3.57Q89.04 3.88 89.75 4.49L89.75 4.49L89.75 4.49Q90.45 5.11 90.85 6.03L90.85 6.03L90.85 6.03Q91.24 6.96 91.24 8.19ZM84.49 4.19L84.49 12.21L84.49 12.21Q84.57 12.22 84.92 12.26L84.92 12.26L84.92 12.26Q85.26 12.31 86.02 12.31L86.02 12.31L86.02 12.31Q87.07 12.31 87.85 12.02L87.85 12.02L87.85 12.02Q88.63 11.73 89.17 11.20L89.17 11.20L89.17 11.20Q89.70 10.67 89.96 9.90L89.96 9.90L89.96 9.90Q90.23 9.14 90.23 8.19L90.23 8.19L90.23 8.19Q90.23 7.24 89.96 6.48L89.96 6.48L89.96 6.48Q89.70 5.73 89.17 5.19L89.17 5.19L89.17 5.19Q88.63 4.66 87.85 4.38L87.85 4.38L87.85 4.38Q87.07 4.09 86.02 4.09L86.02 4.09L86.02 4.09Q85.26 4.09 84.92 4.13L84.92 4.13L84.92 4.13Q84.57 4.17 84.49 4.19L84.49 4.19ZM92.88 9.42L92.88 9.42L92.88 9.42Q92.88 8.47 93.15 7.76L93.15 7.76L93.15 7.76Q93.42 7.06 93.86 6.58L93.86 6.58L93.86 6.58Q94.30 6.10 94.87 5.87L94.87 5.87L94.87 5.87Q95.44 5.64 96.04 5.64L96.04 5.64L96.04 5.64Q97.37 5.64 98.16 6.51L98.16 6.51L98.16 6.51Q98.95 7.38 98.95 9.18L98.95 9.18L98.95 9.18Q98.95 9.30 98.94 9.41L98.94 9.41L98.94 9.41Q98.94 9.52 98.92 9.62L98.92 9.62L93.84 9.62L93.84 9.62Q93.88 10.95 94.50 11.66L94.50 11.66L94.50 11.66Q95.12 12.38 96.46 12.38L96.46 12.38L96.46 12.38Q97.20 12.38 97.64 12.24L97.64 12.24L97.64 12.24Q98.07 12.10 98.27 12.00L98.27 12.00L98.43 12.78L98.43 12.78Q98.24 12.89 97.70 13.05L97.70 13.05L97.70 13.05Q97.16 13.20 96.43 13.20L96.43 13.20L96.43 13.20Q95.48 13.20 94.81 12.92L94.81 12.92L94.81 12.92Q94.14 12.64 93.70 12.14L93.70 12.14L93.70 12.14Q93.27 11.63 93.07 10.94L93.07 10.94L93.07 10.94Q92.88 10.25 92.88 9.42ZM93.87 8.85L98.01 8.85L98.01 8.85Q97.99 7.71 97.48 7.08L97.48 7.08L97.48 7.08Q96.98 6.45 96.05 6.45L96.05 6.45L96.05 6.45Q95.56 6.45 95.18 6.65L95.18 6.65L95.18 6.65Q94.79 6.85 94.51 7.17L94.51 7.17L94.51 7.17Q94.22 7.50 94.06 7.94L94.06 7.94L94.06 7.94Q93.90 8.37 93.87 8.85L93.87 8.85ZM102.47 12.40L102.47 12.40L102.47 12.40Q103.25 12.40 103.76 12.14L103.76 12.14L103.76 12.14Q104.27 11.89 104.27 11.27L104.27 11.27L104.27 11.27Q104.27 10.98 104.18 10.77L104.18 10.77L104.18 10.77Q104.09 10.56 103.88 10.39L103.88 10.39L103.88 10.39Q103.67 10.22 103.33 10.07L103.33 10.07L103.33 10.07Q102.98 9.91 102.48 9.70L102.48 9.70L102.48 9.70Q102.07 9.53 101.71 9.36L101.71 9.36L101.71 9.36Q101.35 9.18 101.07 8.95L101.07 8.95L101.07 8.95Q100.79 8.72 100.62 8.40L100.62 8.40L100.62 8.40Q100.45 8.08 100.45 7.62L100.45 7.62L100.45 7.62Q100.45 6.73 101.11 6.19L101.11 6.19L101.11 6.19Q101.78 5.64 102.94 5.64L102.94 5.64L102.94 5.64Q103.68 5.64 104.17 5.77L104.17 5.77L104.17 5.77Q104.65 5.89 104.85 5.99L104.85 5.99L104.64 6.80L104.64 6.80Q104.47 6.72 104.07 6.58L104.07 6.58L104.07 6.58Q103.67 6.44 102.90 6.44L102.90 6.44L102.90 6.44Q102.59 6.44 102.32 6.50L102.32 6.50L102.32 6.50Q102.05 6.57 101.84 6.70L101.84 6.70L101.84 6.70Q101.63 6.83 101.50 7.04L101.50 7.04L101.50 7.04Q101.37 7.24 101.37 7.53L101.37 7.53L101.37 7.53Q101.37 7.83 101.49 8.04L101.49 8.04L101.49 8.04Q101.60 8.25 101.81 8.41L101.81 8.41L101.81 8.41Q102.03 8.57 102.35 8.71L102.35 8.71L102.35 8.71Q102.66 8.85 103.07 9.02L103.07 9.02L103.07 9.02Q103.49 9.18 103.87 9.36L103.87 9.36L103.87 9.36Q104.26 9.53 104.55 9.78L104.55 9.78L104.55 9.78Q104.85 10.02 105.03 10.37L105.03 10.37L105.03 10.37Q105.21 10.71 105.21 11.23L105.21 11.23L105.21 11.23Q105.21 12.21 104.47 12.71L104.47 12.71L104.47 12.71Q103.74 13.22 102.47 13.22L102.47 13.22L102.47 13.22Q101.51 13.22 101.01 13.05L101.01 13.05L101.01 13.05Q100.51 12.89 100.34 12.81L100.34 12.81L100.58 11.98L100.58 11.98Q100.62 12.01 100.76 12.07L100.76 12.07L100.76 12.07Q100.90 12.14 101.14 12.21L101.14 12.21L101.14 12.21Q101.37 12.29 101.70 12.35L101.70 12.35L101.70 12.35Q102.03 12.40 102.47 12.40ZM107.88 5.81L107.88 13.05L106.97 13.05L106.97 5.81L107.88 5.81ZM108.09 3.63L108.09 3.63L108.09 3.63Q108.09 3.95 107.90 4.14L107.90 4.14L107.90 4.14Q107.70 4.33 107.42 4.33L107.42 4.33L107.42 4.33Q107.14 4.33 106.95 4.14L106.95 4.14L106.95 4.14Q106.75 3.95 106.75 3.63L106.75 3.63L106.75 3.63Q106.75 3.30 106.95 3.12L106.95 3.12L106.95 3.12Q107.14 2.93 107.42 2.93L107.42 2.93L107.42 2.93Q107.70 2.93 107.90 3.12L107.90 3.12L107.90 3.12Q108.09 3.30 108.09 3.63ZM115.01 12.68L115.01 12.21L115.01 12.21Q114.93 12.28 114.76 12.37L114.76 12.37L114.76 12.37Q114.59 12.46 114.34 12.56L114.34 12.56L114.34 12.56Q114.10 12.66 113.78 12.72L113.78 12.72L113.78 12.72Q113.47 12.78 113.08 12.78L113.08 12.78L113.08 12.78Q112.45 12.78 111.86 12.59L111.86 12.59L111.86 12.59Q111.27 12.39 110.83 11.97L110.83 11.97L110.83 11.97Q110.39 11.55 110.12 10.88L110.12 10.88L110.12 10.88Q109.86 10.22 109.86 9.27L109.86 9.27L109.86 9.27Q109.86 8.50 110.10 7.84L110.10 7.84L110.10 7.84Q110.33 7.18 110.77 6.70L110.77 6.70L110.77 6.70Q111.22 6.22 111.85 5.94L111.85 5.94L111.85 5.94Q112.49 5.67 113.29 5.67L113.29 5.67L113.29 5.67Q114.30 5.67 114.91 5.80L114.91 5.80L114.91 5.80Q115.51 5.94 115.91 6.06L115.91 6.06L115.91 12.67L115.91 12.67Q115.91 14.29 115.07 14.99L115.07 14.99L115.07 14.99Q114.23 15.68 112.53 15.68L112.53 15.68L112.53 15.68Q111.83 15.68 111.27 15.57L111.27 15.57L111.27 15.57Q110.70 15.47 110.29 15.33L110.29 15.33L110.47 14.50L110.47 14.50Q110.81 14.66 111.39 14.77L111.39 14.77L111.39 14.77Q111.97 14.88 112.56 14.88L112.56 14.88L112.56 14.88Q113.85 14.88 114.43 14.38L114.43 14.38L114.43 14.38Q115.01 13.89 115.01 12.68L115.01 12.68ZM115.00 11.35L115.00 6.69L115.00 6.69Q114.76 6.62 114.38 6.56L114.38 6.56L114.38 6.56Q114.00 6.50 113.30 6.50L113.30 6.50L113.30 6.50Q112.71 6.50 112.26 6.70L112.26 6.70L112.26 6.70Q111.80 6.90 111.48 7.27L111.48 7.27L111.48 7.27Q111.16 7.64 110.99 8.16L110.99 8.16L110.99 8.16Q110.82 8.67 110.82 9.28L110.82 9.28L110.82 9.28Q110.82 10.00 111.02 10.51L111.02 10.51L111.02 10.51Q111.22 11.02 111.53 11.34L111.53 11.34L111.53 11.34Q111.85 11.66 112.25 11.81L112.25 11.81L112.25 11.81Q112.66 11.96 113.08 11.96L113.08 11.96L113.08 11.96Q113.69 11.96 114.20 11.77L114.20 11.77L114.20 11.77Q114.72 11.59 115.00 11.35L115.00 11.35ZM118.31 13.05L118.31 6.06L118.31 6.06Q118.72 5.95 119.41 5.81L119.41 5.81L119.41 5.81Q120.09 5.67 121.09 5.67L121.09 5.67L121.09 5.67Q121.91 5.67 122.47 5.91L122.47 5.91L122.47 5.91Q123.02 6.15 123.35 6.59L123.35 6.59L123.35 6.59Q123.68 7.03 123.82 7.64L123.82 7.64L123.82 7.64Q123.96 8.26 123.96 9.00L123.96 9.00L123.96 13.05L123.05 13.05L123.05 9.30L123.05 9.30Q123.05 8.53 122.94 7.99L122.94 7.99L122.94 7.99Q122.84 7.46 122.59 7.13L122.59 7.13L122.59 7.13Q122.35 6.79 121.95 6.64L121.95 6.64L121.95 6.64Q121.55 6.50 120.95 6.50L120.95 6.50L120.95 6.50Q120.30 6.50 119.83 6.57L119.83 6.57L119.83 6.57Q119.36 6.64 119.22 6.69L119.22 6.69L119.22 13.05L118.31 13.05ZM127.76 12.40L127.76 12.40L127.76 12.40Q128.55 12.40 129.06 12.14L129.06 12.14L129.06 12.14Q129.57 11.89 129.57 11.27L129.57 11.27L129.57 11.27Q129.57 10.98 129.48 10.77L129.48 10.77L129.48 10.77Q129.39 10.56 129.18 10.39L129.18 10.39L129.18 10.39Q128.97 10.22 128.63 10.07L128.63 10.07L128.63 10.07Q128.28 9.91 127.78 9.70L127.78 9.70L127.78 9.70Q127.37 9.53 127.01 9.36L127.01 9.36L127.01 9.36Q126.64 9.18 126.36 8.95L126.36 8.95L126.36 8.95Q126.08 8.72 125.92 8.40L125.92 8.40L125.92 8.40Q125.75 8.08 125.75 7.62L125.75 7.62L125.75 7.62Q125.75 6.73 126.41 6.19L126.41 6.19L126.41 6.19Q127.08 5.64 128.24 5.64L128.24 5.64L128.24 5.64Q128.98 5.64 129.47 5.77L129.47 5.77L129.47 5.77Q129.95 5.89 130.14 5.99L130.14 5.99L129.93 6.80L129.93 6.80Q129.77 6.72 129.37 6.58L129.37 6.58L129.37 6.58Q128.97 6.44 128.20 6.44L128.20 6.44L128.20 6.44Q127.89 6.44 127.62 6.50L127.62 6.50L127.62 6.50Q127.34 6.57 127.13 6.70L127.13 6.70L127.13 6.70Q126.92 6.83 126.80 7.04L126.80 7.04L126.80 7.04Q126.67 7.24 126.67 7.53L126.67 7.53L126.67 7.53Q126.67 7.83 126.78 8.04L126.78 8.04L126.78 8.04Q126.90 8.25 127.11 8.41L127.11 8.41L127.11 8.41Q127.33 8.57 127.64 8.71L127.64 8.71L127.64 8.71Q127.96 8.85 128.37 9.02L128.37 9.02L128.37 9.02Q128.79 9.18 129.17 9.36L129.17 9.36L129.17 9.36Q129.56 9.53 129.85 9.78L129.85 9.78L129.85 9.78Q130.14 10.02 130.33 10.37L130.33 10.37L130.33 10.37Q130.51 10.71 130.51 11.23L130.51 11.23L130.51 11.23Q130.51 12.21 129.77 12.71L129.77 12.71L129.77 12.71Q129.04 13.22 127.76 13.22L127.76 13.22L127.76 13.22Q126.81 13.22 126.31 13.05L126.31 13.05L126.31 13.05Q125.80 12.89 125.64 12.81L125.64 12.81L125.87 11.98L125.87 11.98Q125.92 12.01 126.06 12.07L126.06 12.07L126.06 12.07Q126.20 12.14 126.43 12.21L126.43 12.21L126.43 12.21Q126.67 12.29 127.00 12.35L127.00 12.35L127.00 12.35Q127.33 12.40 127.76 12.40Z"></path></g><defs data-v-fde0c5aa=""><!----></defs><g data-v-fde0c5aa="" id="037e2f16-3f6f-4842-aab1-776e1715fa99" stroke="none" fill="#FFFFFF" transform="matrix(1.8889257282067033,0,0,1.8889257282067033,35.67247406777309,127.33194461533446)"><path d="M11.99 21.698h.02l.027-.001c5.169-.025 9.395-4.114 9.639-9.23.019-.14.032-.282.032-.425 0-.137-.012-.272-.03-.406-.192-5.163-4.438-9.307-9.642-9.332l-.027-.001h-.02c-5.348 0-9.698 4.35-9.698 9.698.001 5.347 4.351 9.697 9.699 9.697zm-8.246-6.833c.877.784 2.113 1.428 3.594 1.867.438 1.454 1.075 2.67 1.848 3.534a8.77 8.77 0 0 1-5.442-5.401zm8.26-11.595l.025.001c1.452.013 2.763 1.534 3.556 3.805a17.27 17.27 0 0 0-3.575-.363c-1.269 0-2.473.129-3.575.362.795-2.277 2.112-3.801 3.569-3.805zm.006 4.41c1.391 0 2.717.174 3.899.477.295 1.167.463 2.474.463 3.842 0 1.404-.177 2.742-.486 3.931-1.175.3-2.494.471-3.876.471-1.382 0-2.7-.171-3.875-.471A15.734 15.734 0 0 1 7.649 12c0-1.369.168-2.675.463-3.843a15.8 15.8 0 0 1 3.898-.477zM20.721 12c0 .127-.004.252-.01.378-.212 1.317-1.656 2.491-3.741 3.226.237-1.11.369-2.323.369-3.604a17.29 17.29 0 0 0-.35-3.514c2.083.739 3.522 1.916 3.724 3.235.004.093.008.186.008.279zm-8.692 8.73l-.025.001c-1.438-.005-2.738-1.489-3.536-3.716 1.093.229 2.286.356 3.543.356 1.257 0 2.45-.126 3.543-.356-.797 2.22-2.092 3.702-3.525 3.715zM7.05 15.604c-2.261-.797-3.771-2.11-3.771-3.562 0-1.448 1.501-2.757 3.752-3.556A17.363 17.363 0 0 0 6.682 12c0 1.281.131 2.494.368 3.604zm7.801 4.643c.766-.863 1.397-2.071 1.831-3.515 1.449-.429 2.663-1.055 3.536-1.817a8.77 8.77 0 0 1-5.367 5.332zm5.407-11.045c-.87-.772-2.09-1.407-3.548-1.842-.435-1.484-1.077-2.725-1.859-3.607a8.772 8.772 0 0 1 5.407 5.449zM9.187 3.734c-.79.882-1.438 2.13-1.876 3.626-1.491.444-2.733 1.097-3.606 1.892a8.765 8.765 0 0 1 5.482-5.518z"></path></g><defs data-v-fde0c5aa=""><!----></defs><g data-v-fde0c5aa="" id="e594eb11-9dfe-4281-8e6f-11243b64267a" fill="#FFFFFF" transform="matrix(0.5692794695297327,0,0,0.5692794695297327,89.18200098035143,157.08070064332367)"><path d="M5.29 13.26L5.29 13.26L5.29 13.26Q4.35 13.26 3.55 12.92L3.55 12.92L3.55 12.92Q2.74 12.59 2.15 11.94L2.15 11.94L2.15 11.94Q1.55 11.30 1.21 10.35L1.21 10.35L1.21 10.35Q0.87 9.41 0.87 8.19L0.87 8.19L0.87 8.19Q0.87 6.97 1.24 6.03L1.24 6.03L1.24 6.03Q1.61 5.08 2.23 4.44L2.23 4.44L2.23 4.44Q2.84 3.79 3.65 3.46L3.65 3.46L3.65 3.46Q4.47 3.14 5.35 3.14L5.35 3.14L5.35 3.14Q5.89 3.14 6.34 3.21L6.34 3.21L6.34 3.21Q6.79 3.28 7.13 3.38L7.13 3.38L7.13 3.38Q7.46 3.49 7.70 3.59L7.70 3.59L7.70 3.59Q7.94 3.70 8.06 3.78L8.06 3.78L7.76 4.61L7.76 4.61Q7.41 4.40 6.87 4.19L6.87 4.19L6.87 4.19Q6.33 3.99 5.53 3.99L5.53 3.99L5.53 3.99Q4.62 3.99 3.94 4.30L3.94 4.30L3.94 4.30Q3.26 4.61 2.80 5.17L2.80 5.17L2.80 5.17Q2.34 5.73 2.11 6.50L2.11 6.50L2.11 6.50Q1.88 7.27 1.88 8.20L1.88 8.20L1.88 8.20Q1.88 9.17 2.11 9.95L2.11 9.95L2.11 9.95Q2.34 10.72 2.79 11.27L2.79 11.27L2.79 11.27Q3.23 11.82 3.89 12.11L3.89 12.11L3.89 12.11Q4.54 12.40 5.38 12.40L5.38 12.40L5.38 12.40Q6.30 12.40 6.92 12.23L6.92 12.23L6.92 12.23Q7.55 12.05 7.87 11.87L7.87 11.87L8.13 12.68L8.13 12.68Q8.04 12.75 7.80 12.85L7.80 12.85L7.80 12.85Q7.56 12.94 7.20 13.03L7.20 13.03L7.20 13.03Q6.83 13.13 6.36 13.20L6.36 13.20L6.36 13.20Q5.88 13.26 5.29 13.26ZM16.00 7.56L16.00 3.35L16.95 3.35L16.95 13.05L16.00 13.05L16.00 8.39L10.74 8.39L10.74 13.05L9.79 13.05L9.79 3.35L10.74 3.35L10.74 7.56L16.00 7.56ZM27.05 13.05L26.00 13.05L26.00 13.05Q25.73 12.33 25.49 11.68L25.49 11.68L25.49 11.68Q25.26 11.02 25.03 10.39L25.03 10.39L20.31 10.39L20.31 10.39Q20.08 11.02 19.84 11.68L19.84 11.68L19.84 11.68Q19.60 12.33 19.35 13.05L19.35 13.05L18.35 13.05L18.35 13.05Q18.91 11.54 19.40 10.23L19.40 10.23L19.40 10.23Q19.89 8.92 20.36 7.75L20.36 7.75L20.36 7.75Q20.83 6.58 21.29 5.50L21.29 5.50L21.29 5.50Q21.76 4.42 22.27 3.35L22.27 3.35L23.11 3.35L23.11 3.35Q23.63 4.42 24.09 5.50L24.09 5.50L24.09 5.50Q24.56 6.58 25.02 7.75L25.02 7.75L25.02 7.75Q25.49 8.92 25.98 10.23L25.98 10.23L25.98 10.23Q26.47 11.54 27.05 13.05L27.05 13.05ZM22.67 4.44L22.67 4.44L22.67 4.44Q22.13 5.64 21.64 6.89L21.64 6.89L21.64 6.89Q21.14 8.13 20.61 9.58L20.61 9.58L24.74 9.58L24.74 9.58Q24.21 8.13 23.70 6.89L23.70 6.89L23.70 6.89Q23.20 5.64 22.67 4.44ZM35.85 13.05L35.06 13.05L35.06 13.05Q34.79 12.56 34.38 11.90L34.38 11.90L34.38 11.90Q33.96 11.24 33.47 10.49L33.47 10.49L33.47 10.49Q32.98 9.74 32.44 8.95L32.44 8.95L32.44 8.95Q31.89 8.16 31.35 7.41L31.35 7.41L31.35 7.41Q30.81 6.66 30.30 6.01L30.30 6.01L30.30 6.01Q29.79 5.35 29.39 4.87L29.39 4.87L29.39 13.05L28.45 13.05L28.45 3.35L29.20 3.35L29.20 3.35Q29.92 4.14 30.74 5.19L30.74 5.19L30.74 5.19Q31.56 6.23 32.34 7.31L32.34 7.31L32.34 7.31Q33.12 8.40 33.80 9.44L33.80 9.44L33.80 9.44Q34.48 10.47 34.92 11.24L34.92 11.24L34.92 3.35L35.85 3.35L35.85 13.05ZM44.42 12.18L44.42 8.46L45.37 8.46L45.37 12.78L45.37 12.78Q45.11 12.89 44.33 13.07L44.33 13.07L44.33 13.07Q43.55 13.24 42.42 13.24L42.42 13.24L42.42 13.24Q41.47 13.24 40.66 12.91L40.66 12.91L40.66 12.91Q39.84 12.57 39.25 11.94L39.25 11.94L39.25 11.94Q38.65 11.30 38.32 10.35L38.32 10.35L38.32 10.35Q37.98 9.41 37.98 8.19L37.98 8.19L37.98 8.19Q37.98 6.97 38.35 6.03L38.35 6.03L38.35 6.03Q38.71 5.08 39.33 4.45L39.33 4.45L39.33 4.45Q39.96 3.81 40.78 3.47L40.78 3.47L40.78 3.47Q41.61 3.14 42.55 3.14L42.55 3.14L42.55 3.14Q43.62 3.14 44.32 3.37L44.32 3.37L44.32 3.37Q45.02 3.60 45.35 3.81L45.35 3.81L45.02 4.62L45.02 4.62Q44.63 4.34 43.96 4.16L43.96 4.16L43.96 4.16Q43.29 3.99 42.50 3.99L42.50 3.99L42.50 3.99Q41.78 3.99 41.13 4.26L41.13 4.26L41.13 4.26Q40.49 4.52 40.01 5.05L40.01 5.05L40.01 5.05Q39.54 5.59 39.26 6.37L39.26 6.37L39.26 6.37Q38.99 7.15 38.99 8.19L38.99 8.19L38.99 8.19Q38.99 9.16 39.21 9.93L39.21 9.93L39.21 9.93Q39.44 10.71 39.89 11.26L39.89 11.26L39.89 11.26Q40.35 11.82 41.02 12.11L41.02 12.11L41.02 12.11Q41.69 12.40 42.57 12.40L42.57 12.40L42.57 12.40Q43.29 12.40 43.77 12.33L43.77 12.33L43.77 12.33Q44.25 12.25 44.42 12.18L44.42 12.18ZM47.59 13.05L47.59 3.35L48.54 3.35L48.54 13.05L47.59 13.05ZM58.46 13.05L57.67 13.05L57.67 13.05Q57.40 12.56 56.99 11.90L56.99 11.90L56.99 11.90Q56.57 11.24 56.08 10.49L56.08 10.49L56.08 10.49Q55.59 9.74 55.05 8.95L55.05 8.95L55.05 8.95Q54.50 8.16 53.96 7.41L53.96 7.41L53.96 7.41Q53.42 6.66 52.91 6.01L52.91 6.01L52.91 6.01Q52.40 5.35 52.00 4.87L52.00 4.87L52.00 13.05L51.06 13.05L51.06 3.35L51.81 3.35L51.81 3.35Q52.53 4.14 53.35 5.19L53.35 5.19L53.35 5.19Q54.17 6.23 54.95 7.31L54.95 7.31L54.95 7.31Q55.73 8.40 56.41 9.44L56.41 9.44L56.41 9.44Q57.09 10.47 57.53 11.24L57.53 11.24L57.53 3.35L58.46 3.35L58.46 13.05ZM67.03 12.18L67.03 8.46L67.98 8.46L67.98 12.78L67.98 12.78Q67.72 12.89 66.94 13.07L66.94 13.07L66.94 13.07Q66.16 13.24 65.03 13.24L65.03 13.24L65.03 13.24Q64.08 13.24 63.27 12.91L63.27 12.91L63.27 12.91Q62.45 12.57 61.86 11.94L61.86 11.94L61.86 11.94Q61.26 11.30 60.93 10.35L60.93 10.35L60.93 10.35Q60.59 9.41 60.59 8.19L60.59 8.19L60.59 8.19Q60.59 6.97 60.96 6.03L60.96 6.03L60.96 6.03Q61.32 5.08 61.94 4.45L61.94 4.45L61.94 4.45Q62.57 3.81 63.39 3.47L63.39 3.47L63.39 3.47Q64.22 3.14 65.16 3.14L65.16 3.14L65.16 3.14Q66.23 3.14 66.93 3.37L66.93 3.37L66.93 3.37Q67.63 3.60 67.96 3.81L67.96 3.81L67.63 4.62L67.63 4.62Q67.24 4.34 66.57 4.16L66.57 4.16L66.57 4.16Q65.90 3.99 65.11 3.99L65.11 3.99L65.11 3.99Q64.39 3.99 63.74 4.26L63.74 4.26L63.74 4.26Q63.10 4.52 62.62 5.05L62.62 5.05L62.62 5.05Q62.15 5.59 61.87 6.37L61.87 6.37L61.87 6.37Q61.60 7.15 61.60 8.19L61.60 8.19L61.60 8.19Q61.60 9.16 61.82 9.93L61.82 9.93L61.82 9.93Q62.05 10.71 62.50 11.26L62.50 11.26L62.50 11.26Q62.96 11.82 63.63 12.11L63.63 12.11L63.63 12.11Q64.30 12.40 65.18 12.40L65.18 12.40L65.18 12.40Q65.90 12.40 66.38 12.33L66.38 12.33L66.38 12.33Q66.86 12.25 67.03 12.18L67.03 12.18ZM74.34 12.22L78.90 12.22L78.90 13.05L73.39 13.05L73.39 3.35L74.34 3.35L74.34 12.22ZM80.42 13.05L80.42 3.35L81.37 3.35L81.37 13.05L80.42 13.05ZM82.77 3.35L83.83 3.35L83.83 3.35Q84.25 4.59 84.64 5.71L84.64 5.71L84.64 5.71Q85.04 6.82 85.41 7.86L85.41 7.86L85.41 7.86Q85.79 8.90 86.18 9.90L86.18 9.90L86.18 9.90Q86.58 10.91 87.02 11.93L87.02 11.93L87.02 11.93Q87.46 10.92 87.86 9.92L87.86 9.92L87.86 9.92Q88.26 8.92 88.64 7.88L88.64 7.88L88.64 7.88Q89.03 6.83 89.41 5.71L89.41 5.71L89.41 5.71Q89.80 4.59 90.22 3.35L90.22 3.35L91.22 3.35L91.22 3.35Q90.58 5.18 90.07 6.57L90.07 6.57L90.07 6.57Q89.56 7.95 89.12 9.07L89.12 9.07L89.12 9.07Q88.68 10.19 88.28 11.14L88.28 11.14L88.28 11.14Q87.88 12.08 87.44 13.05L87.44 13.05L86.56 13.05L86.56 13.05Q86.13 12.08 85.72 11.14L85.72 11.14L85.72 11.14Q85.32 10.19 84.87 9.07L84.87 9.07L84.87 9.07Q84.43 7.95 83.92 6.57L83.92 6.57L83.92 6.57Q83.41 5.18 82.77 3.35L82.77 3.35ZM98.59 13.05L92.62 13.05L92.62 3.35L98.22 3.35L98.22 4.17L93.58 4.17L93.58 7.55L97.72 7.55L97.72 8.36L93.58 8.36L93.58 12.22L98.59 12.22L98.59 13.05ZM102.48 12.43L102.48 12.43L102.48 12.43Q103.61 12.43 104.24 12.02L104.24 12.02L104.24 12.02Q104.87 11.61 104.87 10.68L104.87 10.68L104.87 10.68Q104.87 10.15 104.67 9.79L104.67 9.79L104.67 9.79Q104.47 9.44 104.13 9.19L104.13 9.19L104.13 9.19Q103.80 8.95 103.36 8.77L103.36 8.77L103.36 8.77Q102.93 8.60 102.45 8.40L102.45 8.40L102.45 8.40Q101.85 8.16 101.37 7.91L101.37 7.91L101.37 7.91Q100.90 7.66 100.56 7.34L100.56 7.34L100.56 7.34Q100.23 7.03 100.05 6.62L100.05 6.62L100.05 6.62Q99.88 6.22 99.88 5.67L99.88 5.67L99.88 5.67Q99.88 4.42 100.70 3.78L100.70 3.78L100.70 3.78Q101.53 3.14 103.00 3.14L103.00 3.14L103.00 3.14Q103.39 3.14 103.77 3.19L103.77 3.19L103.77 3.19Q104.15 3.25 104.47 3.34L104.47 3.34L104.47 3.34Q104.80 3.43 105.08 3.54L105.08 3.54L105.08 3.54Q105.35 3.65 105.53 3.78L105.53 3.78L105.20 4.58L105.20 4.58Q104.79 4.30 104.21 4.13L104.21 4.13L104.21 4.13Q103.63 3.96 102.96 3.96L102.96 3.96L102.96 3.96Q102.49 3.96 102.11 4.05L102.11 4.05L102.11 4.05Q101.72 4.14 101.44 4.35L101.44 4.35L101.44 4.35Q101.16 4.55 101.00 4.86L101.00 4.86L101.00 4.86Q100.84 5.17 100.84 5.60L100.84 5.60L100.84 5.60Q100.84 6.05 101.01 6.36L101.01 6.36L101.01 6.36Q101.18 6.66 101.48 6.89L101.48 6.89L101.48 6.89Q101.78 7.11 102.19 7.29L102.19 7.29L102.19 7.29Q102.59 7.48 103.07 7.67L103.07 7.67L103.07 7.67Q103.64 7.91 104.15 8.15L104.15 8.15L104.15 8.15Q104.66 8.39 105.04 8.71L105.04 8.71L105.04 8.71Q105.42 9.03 105.64 9.49L105.64 9.49L105.64 9.49Q105.87 9.95 105.87 10.63L105.87 10.63L105.87 10.63Q105.87 11.94 104.95 12.60L104.95 12.60L104.95 12.60Q104.03 13.26 102.47 13.26L102.47 13.26L102.47 13.26Q101.91 13.26 101.44 13.19L101.44 13.19L101.44 13.19Q100.98 13.12 100.62 13.01L100.62 13.01L100.62 13.01Q100.25 12.91 100.00 12.80L100.00 12.80L100.00 12.80Q99.75 12.68 99.61 12.60L99.61 12.60L99.92 11.77L99.92 11.77Q100.06 11.86 100.30 11.97L100.30 11.97L100.30 11.97Q100.53 12.08 100.86 12.19L100.86 12.19L100.86 12.19Q101.18 12.29 101.58 12.36L101.58 12.36L101.58 12.36Q101.99 12.43 102.48 12.43ZM108.86 12.45L108.86 12.45L108.86 12.45Q108.86 12.77 108.66 12.99L108.66 12.99L108.66 12.99Q108.46 13.22 108.09 13.22L108.09 13.22L108.09 13.22Q107.73 13.22 107.53 12.99L107.53 12.99L107.53 12.99Q107.32 12.77 107.32 12.45L107.32 12.45L107.32 12.45Q107.32 12.12 107.53 11.90L107.53 11.90L107.53 11.90Q107.73 11.68 108.09 11.68L108.09 11.68L108.09 11.68Q108.46 11.68 108.66 11.90L108.66 11.90L108.66 11.90Q108.86 12.12 108.86 12.45ZM108.86 6.58L108.86 6.58L108.86 6.58Q108.86 6.90 108.66 7.13L108.66 7.13L108.66 7.13Q108.46 7.35 108.09 7.35L108.09 7.35L108.09 7.35Q107.73 7.35 107.53 7.13L107.53 7.13L107.53 7.13Q107.32 6.90 107.32 6.58L107.32 6.58L107.32 6.58Q107.32 6.26 107.53 6.03L107.53 6.03L107.53 6.03Q107.73 5.81 108.09 5.81L108.09 5.81L108.09 5.81Q108.46 5.81 108.66 6.03L108.66 6.03L108.66 6.03Q108.86 6.26 108.86 6.58ZM122.98 8.19L122.98 8.19L122.98 8.19Q122.98 9.44 122.61 10.39L122.61 10.39L122.61 10.39Q122.25 11.34 121.62 11.98L121.62 11.98L121.62 11.98Q121.00 12.61 120.18 12.94L120.18 12.94L120.18 12.94Q119.35 13.26 118.43 13.26L118.43 13.26L118.43 13.26Q117.50 13.26 116.68 12.94L116.68 12.94L116.68 12.94Q115.85 12.61 115.23 11.98L115.23 11.98L115.23 11.98Q114.60 11.34 114.24 10.39L114.24 10.39L114.24 10.39Q113.88 9.44 113.88 8.19L113.88 8.19L113.88 8.19Q113.88 6.94 114.24 6.00L114.24 6.00L114.24 6.00Q114.60 5.05 115.23 4.42L115.23 4.42L115.23 4.42Q115.85 3.78 116.68 3.46L116.68 3.46L116.68 3.46Q117.50 3.14 118.43 3.14L118.43 3.14L118.43 3.14Q119.35 3.14 120.18 3.46L120.18 3.46L120.18 3.46Q121.00 3.78 121.62 4.42L121.62 4.42L121.62 4.42Q122.25 5.05 122.61 6.00L122.61 6.00L122.61 6.00Q122.98 6.94 122.98 8.19ZM121.97 8.19L121.97 8.19L121.97 8.19Q121.97 7.21 121.72 6.43L121.72 6.43L121.72 6.43Q121.46 5.66 121.00 5.11L121.00 5.11L121.00 5.11Q120.54 4.56 119.89 4.28L119.89 4.28L119.89 4.28Q119.24 3.99 118.43 3.99L118.43 3.99L118.43 3.99Q117.61 3.99 116.96 4.28L116.96 4.28L116.96 4.28Q116.31 4.56 115.85 5.11L115.85 5.11L115.85 5.11Q115.39 5.66 115.14 6.43L115.14 6.43L115.14 6.43Q114.88 7.21 114.88 8.19L114.88 8.19L114.88 8.19Q114.88 9.17 115.14 9.95L115.14 9.95L115.14 9.95Q115.39 10.72 115.85 11.27L115.85 11.27L115.85 11.27Q116.31 11.82 116.96 12.11L116.96 12.11L116.96 12.11Q117.61 12.40 118.43 12.40L118.43 12.40L118.43 12.40Q119.24 12.40 119.89 12.11L119.89 12.11L119.89 12.11Q120.54 11.82 121.00 11.27L121.00 11.27L121.00 11.27Q121.46 10.72 121.72 9.95L121.72 9.95L121.72 9.95Q121.97 9.17 121.97 8.19ZM132.51 13.05L131.71 13.05L131.71 13.05Q131.45 12.56 131.03 11.90L131.03 11.90L131.03 11.90Q130.62 11.24 130.13 10.49L130.13 10.49L130.13 10.49Q129.64 9.74 129.09 8.95L129.09 8.95L129.09 8.95Q128.55 8.16 128.01 7.41L128.01 7.41L128.01 7.41Q127.47 6.66 126.96 6.01L126.96 6.01L126.96 6.01Q126.45 5.35 126.04 4.87L126.04 4.87L126.04 13.05L125.10 13.05L125.10 3.35L125.86 3.35L125.86 3.35Q126.57 4.14 127.39 5.19L127.39 5.19L127.39 5.19Q128.21 6.23 129.00 7.31L129.00 7.31L129.00 7.31Q129.78 8.40 130.46 9.44L130.46 9.44L130.46 9.44Q131.14 10.47 131.57 11.24L131.57 11.24L131.57 3.35L132.51 3.35L132.51 13.05ZM140.99 13.05L135.03 13.05L135.03 3.35L140.63 3.35L140.63 4.17L135.98 4.17L135.98 7.55L140.13 7.55L140.13 8.36L135.98 8.36L135.98 12.22L140.99 12.22L140.99 13.05ZM146.94 12.22L151.51 12.22L151.51 13.05L145.99 13.05L145.99 3.35L146.94 3.35L146.94 12.22ZM153.02 13.05L153.02 3.35L153.97 3.35L153.97 13.05L153.02 13.05ZM163.90 13.05L163.10 13.05L163.10 13.05Q162.83 12.56 162.42 11.90L162.42 11.90L162.42 11.90Q162.01 11.24 161.52 10.49L161.52 10.49L161.52 10.49Q161.03 9.74 160.48 8.95L160.48 8.95L160.48 8.95Q159.94 8.16 159.40 7.41L159.40 7.41L159.40 7.41Q158.86 6.66 158.35 6.01L158.35 6.01L158.35 6.01Q157.84 5.35 157.43 4.87L157.43 4.87L157.43 13.05L156.49 13.05L156.49 3.35L157.25 3.35L157.25 3.35Q157.96 4.14 158.78 5.19L158.78 5.19L158.78 5.19Q159.60 6.23 160.38 7.31L160.38 7.31L160.38 7.31Q161.17 8.40 161.85 9.44L161.85 9.44L161.85 9.44Q162.53 10.47 162.96 11.24L162.96 11.24L162.96 3.35L163.90 3.35L163.90 13.05ZM172.38 13.05L166.42 13.05L166.42 3.35L172.02 3.35L172.02 4.17L167.37 4.17L167.37 7.55L171.51 7.55L171.51 8.36L167.37 8.36L167.37 12.22L172.38 12.22L172.38 13.05ZM186.09 8.19L186.09 8.19L186.09 8.19Q186.09 9.44 185.72 10.39L185.72 10.39L185.72 10.39Q185.36 11.34 184.74 11.98L184.74 11.98L184.74 11.98Q184.11 12.61 183.29 12.94L183.29 12.94L183.29 12.94Q182.46 13.26 181.54 13.26L181.54 13.26L181.54 13.26Q180.61 13.26 179.79 12.94L179.79 12.94L179.79 12.94Q178.96 12.61 178.34 11.98L178.34 11.98L178.34 11.98Q177.72 11.34 177.35 10.39L177.35 10.39L177.35 10.39Q176.99 9.44 176.99 8.19L176.99 8.19L176.99 8.19Q176.99 6.94 177.35 6.00L177.35 6.00L177.35 6.00Q177.72 5.05 178.34 4.42L178.34 4.42L178.34 4.42Q178.96 3.78 179.79 3.46L179.79 3.46L179.79 3.46Q180.61 3.14 181.54 3.14L181.54 3.14L181.54 3.14Q182.46 3.14 183.29 3.46L183.29 3.46L183.29 3.46Q184.11 3.78 184.74 4.42L184.74 4.42L184.74 4.42Q185.36 5.05 185.72 6.00L185.72 6.00L185.72 6.00Q186.09 6.94 186.09 8.19ZM185.08 8.19L185.08 8.19L185.08 8.19Q185.08 7.21 184.83 6.43L184.83 6.43L184.83 6.43Q184.58 5.66 184.11 5.11L184.11 5.11L184.11 5.11Q183.65 4.56 183.00 4.28L183.00 4.28L183.00 4.28Q182.35 3.99 181.54 3.99L181.54 3.99L181.54 3.99Q180.73 3.99 180.08 4.28L180.08 4.28L180.08 4.28Q179.42 4.56 178.96 5.11L178.96 5.11L178.96 5.11Q178.50 5.66 178.25 6.43L178.25 6.43L178.25 6.43Q178.00 7.21 178.00 8.19L178.00 8.19L178.00 8.19Q178.00 9.17 178.25 9.95L178.25 9.95L178.25 9.95Q178.50 10.72 178.96 11.27L178.96 11.27L178.96 11.27Q179.42 11.82 180.08 12.11L180.08 12.11L180.08 12.11Q180.73 12.40 181.54 12.40L181.54 12.40L181.54 12.40Q182.35 12.40 183.00 12.11L183.00 12.11L183.00 12.11Q183.65 11.82 184.11 11.27L184.11 11.27L184.11 11.27Q184.58 10.72 184.83 9.95L184.83 9.95L184.83 9.95Q185.08 9.17 185.08 8.19ZM189.17 13.05L188.22 13.05L188.22 3.35L193.75 3.35L193.75 4.17L189.17 4.17L189.17 7.59L193.23 7.59L193.23 8.41L189.17 8.41L189.17 13.05ZM202.72 13.26L202.72 13.26L202.72 13.26Q201.78 13.26 200.98 12.92L200.98 12.92L200.98 12.92Q200.17 12.59 199.58 11.94L199.58 11.94L199.58 11.94Q198.98 11.30 198.64 10.35L198.64 10.35L198.64 10.35Q198.30 9.41 198.30 8.19L198.30 8.19L198.30 8.19Q198.30 6.97 198.67 6.03L198.67 6.03L198.67 6.03Q199.04 5.08 199.65 4.44L199.65 4.44L199.65 4.44Q200.27 3.79 201.08 3.46L201.08 3.46L201.08 3.46Q201.89 3.14 202.78 3.14L202.78 3.14L202.78 3.14Q203.32 3.14 203.77 3.21L203.77 3.21L203.77 3.21Q204.22 3.28 204.55 3.38L204.55 3.38L204.55 3.38Q204.89 3.49 205.13 3.59L205.13 3.59L205.13 3.59Q205.37 3.70 205.49 3.78L205.49 3.78L205.18 4.61L205.18 4.61Q204.83 4.40 204.30 4.19L204.30 4.19L204.30 4.19Q203.76 3.99 202.96 3.99L202.96 3.99L202.96 3.99Q202.05 3.99 201.37 4.30L201.37 4.30L201.37 4.30Q200.69 4.61 200.23 5.17L200.23 5.17L200.23 5.17Q199.77 5.73 199.54 6.50L199.54 6.50L199.54 6.50Q199.30 7.27 199.30 8.20L199.30 8.20L199.30 8.20Q199.30 9.17 199.54 9.95L199.54 9.95L199.54 9.95Q199.77 10.72 200.21 11.27L200.21 11.27L200.21 11.27Q200.66 11.82 201.31 12.11L201.31 12.11L201.31 12.11Q201.96 12.40 202.80 12.40L202.80 12.40L202.80 12.40Q203.73 12.40 204.35 12.23L204.35 12.23L204.35 12.23Q204.97 12.05 205.30 11.87L205.30 11.87L205.56 12.68L205.56 12.68Q205.46 12.75 205.23 12.85L205.23 12.85L205.23 12.85Q204.99 12.94 204.62 13.03L204.62 13.03L204.62 13.03Q204.26 13.13 203.78 13.20L203.78 13.20L203.78 13.20Q203.31 13.26 202.72 13.26ZM215.92 8.19L215.92 8.19L215.92 8.19Q215.92 9.44 215.56 10.39L215.56 10.39L215.56 10.39Q215.19 11.34 214.57 11.98L214.57 11.98L214.57 11.98Q213.95 12.61 213.12 12.94L213.12 12.94L213.12 12.94Q212.30 13.26 211.37 13.26L211.37 13.26L211.37 13.26Q210.45 13.26 209.62 12.94L209.62 12.94L209.62 12.94Q208.80 12.61 208.17 11.98L208.17 11.98L208.17 11.98Q207.55 11.34 207.19 10.39L207.19 10.39L207.19 10.39Q206.82 9.44 206.82 8.19L206.82 8.19L206.82 8.19Q206.82 6.94 207.19 6.00L207.19 6.00L207.19 6.00Q207.55 5.05 208.17 4.42L208.17 4.42L208.17 4.42Q208.80 3.78 209.62 3.46L209.62 3.46L209.62 3.46Q210.45 3.14 211.37 3.14L211.37 3.14L211.37 3.14Q212.30 3.14 213.12 3.46L213.12 3.46L213.12 3.46Q213.95 3.78 214.57 4.42L214.57 4.42L214.57 4.42Q215.19 5.05 215.56 6.00L215.56 6.00L215.56 6.00Q215.92 6.94 215.92 8.19ZM214.91 8.19L214.91 8.19L214.91 8.19Q214.91 7.21 214.66 6.43L214.66 6.43L214.66 6.43Q214.41 5.66 213.95 5.11L213.95 5.11L213.95 5.11Q213.49 4.56 212.84 4.28L212.84 4.28L212.84 4.28Q212.18 3.99 211.37 3.99L211.37 3.99L211.37 3.99Q210.56 3.99 209.91 4.28L209.91 4.28L209.91 4.28Q209.26 4.56 208.80 5.11L208.80 5.11L208.80 5.11Q208.33 5.66 208.08 6.43L208.08 6.43L208.08 6.43Q207.83 7.21 207.83 8.19L207.83 8.19L207.83 8.19Q207.83 9.17 208.08 9.95L208.08 9.95L208.08 9.95Q208.33 10.72 208.80 11.27L208.80 11.27L208.80 11.27Q209.26 11.82 209.91 12.11L209.91 12.11L209.91 12.11Q210.56 12.40 211.37 12.40L211.37 12.40L211.37 12.40Q212.18 12.40 212.84 12.11L212.84 12.11L212.84 12.11Q213.49 11.82 213.95 11.27L213.95 11.27L213.95 11.27Q214.41 10.72 214.66 9.95L214.66 9.95L214.66 9.95Q214.91 9.17 214.91 8.19ZM225.75 8.19L225.75 8.19L225.75 8.19Q225.75 9.44 225.36 10.36L225.36 10.36L225.36 10.36Q224.97 11.28 224.26 11.90L224.26 11.90L224.26 11.90Q223.55 12.52 222.57 12.82L222.57 12.82L222.57 12.82Q221.59 13.13 220.42 13.13L220.42 13.13L220.42 13.13Q219.83 13.13 219.18 13.07L219.18 13.07L219.18 13.07Q218.54 13.01 218.05 12.88L218.05 12.88L218.05 3.53L218.05 3.53Q218.54 3.39 219.18 3.32L219.18 3.32L219.18 3.32Q219.83 3.26 220.42 3.26L220.42 3.26L220.42 3.26Q221.59 3.26 222.57 3.57L222.57 3.57L222.57 3.57Q223.55 3.88 224.26 4.49L224.26 4.49L224.26 4.49Q224.97 5.11 225.36 6.03L225.36 6.03L225.36 6.03Q225.75 6.96 225.75 8.19ZM219.00 4.19L219.00 12.21L219.00 12.21Q219.09 12.22 219.43 12.26L219.43 12.26L219.43 12.26Q219.77 12.31 220.53 12.31L220.53 12.31L220.53 12.31Q221.58 12.31 222.36 12.02L222.36 12.02L222.36 12.02Q223.15 11.73 223.68 11.20L223.68 11.20L223.68 11.20Q224.21 10.67 224.48 9.90L224.48 9.90L224.48 9.90Q224.74 9.14 224.74 8.19L224.74 8.19L224.74 8.19Q224.74 7.24 224.48 6.48L224.48 6.48L224.48 6.48Q224.21 5.73 223.68 5.19L223.68 5.19L223.68 5.19Q223.15 4.66 222.36 4.38L222.36 4.38L222.36 4.38Q221.58 4.09 220.53 4.09L220.53 4.09L220.53 4.09Q219.77 4.09 219.43 4.13L219.43 4.13L219.43 4.13Q219.09 4.17 219.00 4.19L219.00 4.19ZM233.84 13.05L227.88 13.05L227.88 3.35L233.48 3.35L233.48 4.17L228.83 4.17L228.83 7.55L232.97 7.55L232.97 8.36L228.83 8.36L228.83 12.22L233.84 12.22L233.84 13.05ZM246.41 13.05L245.36 13.05L245.36 13.05Q245.10 12.33 244.86 11.68L244.86 11.68L244.86 11.68Q244.62 11.02 244.40 10.39L244.40 10.39L239.68 10.39L239.68 10.39Q239.44 11.02 239.20 11.68L239.20 11.68L239.20 11.68Q238.97 12.33 238.71 13.05L238.71 13.05L237.72 13.05L237.72 13.05Q238.28 11.54 238.77 10.23L238.77 10.23L238.77 10.23Q239.26 8.92 239.73 7.75L239.73 7.75L239.73 7.75Q240.20 6.58 240.66 5.50L240.66 5.50L240.66 5.50Q241.12 4.42 241.64 3.35L241.64 3.35L242.48 3.35L242.48 3.35Q243.00 4.42 243.46 5.50L243.46 5.50L243.46 5.50Q243.92 6.58 244.39 7.75L244.39 7.75L244.39 7.75Q244.86 8.92 245.35 10.23L245.35 10.23L245.35 10.23Q245.84 11.54 246.41 13.05L246.41 13.05ZM242.03 4.44L242.03 4.44L242.03 4.44Q241.50 5.64 241.00 6.89L241.00 6.89L241.00 6.89Q240.51 8.13 239.97 9.58L239.97 9.58L244.10 9.58L244.10 9.58Q243.57 8.13 243.07 6.89L243.07 6.89L243.07 6.89Q242.56 5.64 242.03 4.44ZM246.81 3.35L253.97 3.35L253.97 4.17L250.87 4.17L250.87 13.05L249.91 13.05L249.91 4.17L246.81 4.17L246.81 3.35ZM266.25 13.05L265.20 13.05L265.20 13.05Q264.94 12.33 264.70 11.68L264.70 11.68L264.70 11.68Q264.46 11.02 264.24 10.39L264.24 10.39L259.52 10.39L259.52 10.39Q259.28 11.02 259.04 11.68L259.04 11.68L259.04 11.68Q258.80 12.33 258.55 13.05L258.55 13.05L257.56 13.05L257.56 13.05Q258.12 11.54 258.61 10.23L258.61 10.23L258.61 10.23Q259.10 8.92 259.57 7.75L259.57 7.75L259.57 7.75Q260.04 6.58 260.50 5.50L260.50 5.50L260.50 5.50Q260.96 4.42 261.48 3.35L261.48 3.35L262.32 3.35L262.32 3.35Q262.84 4.42 263.30 5.50L263.30 5.50L263.30 5.50Q263.76 6.58 264.23 7.75L264.23 7.75L264.23 7.75Q264.70 8.92 265.19 10.23L265.19 10.23L265.19 10.23Q265.68 11.54 266.25 13.05L266.25 13.05ZM261.87 4.44L261.87 4.44L261.87 4.44Q261.34 5.64 260.84 6.89L260.84 6.89L260.84 6.89Q260.34 8.13 259.81 9.58L259.81 9.58L263.94 9.58L263.94 9.58Q263.41 8.13 262.91 6.89L262.91 6.89L262.91 6.89Q262.40 5.64 261.87 4.44ZM269.84 3.35L277.00 3.35L277.00 4.17L273.90 4.17L273.90 13.05L272.94 13.05L272.94 4.17L269.84 4.17L269.84 3.35ZM278.52 13.05L278.52 3.35L279.47 3.35L279.47 13.05L278.52 13.05ZM287.20 11.65L286.34 11.65L286.34 11.65Q286.20 11.30 285.94 10.72L285.94 10.72L285.94 10.72Q285.68 10.15 285.36 9.47L285.36 9.47L285.36 9.47Q285.04 8.79 284.70 8.07L284.70 8.07L284.70 8.07Q284.37 7.35 284.06 6.72L284.06 6.72L284.06 6.72Q283.75 6.09 283.51 5.61L283.51 5.61L283.51 5.61Q283.28 5.14 283.16 4.94L283.16 4.94L283.16 4.94Q282.98 6.69 282.88 8.74L282.88 8.74L282.88 8.74Q282.77 10.79 282.69 13.05L282.69 13.05L281.75 13.05L281.75 13.05Q281.88 10.40 282.04 7.98L282.04 7.98L282.04 7.98Q282.20 5.56 282.44 3.35L282.44 3.35L283.28 3.35L283.28 3.35Q283.70 4.05 284.17 4.96L284.17 4.96L284.17 4.96Q284.65 5.88 285.12 6.87L285.12 6.87L285.12 6.87Q285.59 7.85 286.03 8.81L286.03 8.81L286.03 8.81Q286.47 9.77 286.80 10.54L286.80 10.54L286.80 10.54Q287.14 9.77 287.58 8.81L287.58 8.81L287.58 8.81Q288.02 7.85 288.49 6.87L288.49 6.87L288.49 6.87Q288.96 5.88 289.44 4.96L289.44 4.96L289.44 4.96Q289.91 4.05 290.33 3.35L290.33 3.35L291.13 3.35L291.13 3.35Q291.37 5.56 291.53 7.98L291.53 7.98L291.53 7.98Q291.69 10.40 291.82 13.05L291.82 13.05L290.85 13.05L290.85 13.05Q290.77 10.79 290.66 8.74L290.66 8.74L290.66 8.74Q290.56 6.69 290.37 4.94L290.37 4.94L290.37 4.94Q290.26 5.14 290.02 5.61L290.02 5.61L290.02 5.61Q289.79 6.09 289.48 6.72L289.48 6.72L289.48 6.72Q289.17 7.35 288.83 8.07L288.83 8.07L288.83 8.07Q288.50 8.79 288.18 9.47L288.18 9.47L288.18 9.47Q287.85 10.15 287.60 10.72L287.60 10.72L287.60 10.72Q287.34 11.30 287.20 11.65L287.20 11.65ZM300.06 13.05L294.10 13.05L294.10 3.35L299.70 3.35L299.70 4.17L295.05 4.17L295.05 7.55L299.19 7.55L299.19 8.36L295.05 8.36L295.05 12.22L300.06 12.22L300.06 13.05Z"></path></g></svg>