<svg data-v-fde0c5aa="" xmlns="http://www.w3.org/2000/svg" viewBox="0 0 300 300" class="font"><!----><defs data-v-fde0c5aa=""><!----></defs><rect data-v-fde0c5aa="" fill="#FFFFFF" x="0" y="0" width="300px" height="300px" class="logo-background-square"></rect><defs data-v-fde0c5aa=""><!----></defs><g data-v-fde0c5aa="" id="d0a93a1e-4684-4520-b028-e354981a0487" fill="#191a1d" transform="matrix(1.7108638320216203,0,0,1.7108638320216203,38.75106936999208,138.46877816375994)"><path d="M5.60 10.36C8.34 10.36 10.47 8.15 10.47 5.42C10.47 2.67 8.34 0.46 5.60 0.46C2.86 0.46 0.73 2.67 0.73 5.42C0.73 8.15 2.86 10.36 5.60 10.36ZM5.60 9.49C3.37 9.49 1.65 7.66 1.65 5.42C1.65 3.18 3.37 1.33 5.60 1.33C7.83 1.33 9.55 3.18 9.55 5.42C9.55 7.66 7.83 9.49 5.60 9.49ZM15.34 10.35C16.28 10.35 17.11 10.01 17.70 9.45L17.14 8.85C16.69 9.25 16.07 9.49 15.37 9.49C13.94 9.49 12.78 8.47 12.78 6.94C12.78 5.40 13.94 4.40 15.37 4.40C16.07 4.40 16.69 4.65 17.14 5.05L17.70 4.44C17.11 3.89 16.28 3.54 15.34 3.54C13.48 3.54 11.89 4.87 11.89 6.94C11.89 9.02 13.48 10.35 15.34 10.35ZM25.26 6.93C25.26 4.86 23.90 3.54 22.04 3.54C20.19 3.54 18.70 4.86 18.70 6.93C18.70 9.00 20.19 10.36 22.04 10.36C23.27 10.36 24.39 9.77 24.96 8.72L24.19 8.39C23.76 9.10 22.96 9.51 22.06 9.51C20.75 9.51 19.77 8.72 19.61 7.32L25.24 7.32C25.26 7.20 25.26 7.06 25.26 6.93ZM19.63 6.55C19.80 5.15 20.75 4.40 22.04 4.40C23.31 4.40 24.25 5.19 24.37 6.55ZM32.48 3.68L32.48 4.94C31.99 4.06 30.98 3.54 29.88 3.54C28.04 3.54 26.56 4.96 26.56 6.94C26.56 8.93 28.06 10.36 29.88 10.36C30.97 10.36 31.99 9.84 32.48 8.95L32.48 10.22L33.38 10.22L33.38 3.68ZM29.95 9.51C28.57 9.51 27.45 8.39 27.45 6.93C27.45 5.49 28.57 4.40 29.95 4.40C31.25 4.40 32.48 5.39 32.48 6.97C32.48 8.48 31.30 9.51 29.95 9.51ZM38.78 3.54C37.97 3.54 36.90 3.92 36.51 4.86L36.51 3.68L35.62 3.68L35.62 10.22L36.51 10.22L36.51 6.59C36.54 5.01 37.65 4.42 38.70 4.42C39.75 4.42 40.54 5.19 40.54 6.45L40.54 10.22L41.44 10.22L41.44 6.41C41.44 4.61 40.36 3.54 38.78 3.54ZM49.06 3.68L49.06 4.94C48.57 4.06 47.56 3.54 46.45 3.54C44.62 3.54 43.13 4.96 43.13 6.94C43.13 8.93 44.63 10.36 46.45 10.36C47.54 10.36 48.57 9.84 49.06 8.95L49.06 10.22L49.95 10.22L49.95 3.68ZM46.52 9.51C45.15 9.51 44.03 8.39 44.03 6.93C44.03 5.49 45.15 4.40 46.52 4.40C47.82 4.40 49.06 5.39 49.06 6.97C49.06 8.48 47.88 9.51 46.52 9.51ZM65.84 0.57L63.14 8.82L61.17 1.97L60.37 1.97L58.39 8.78L55.69 0.57L54.71 0.57L57.97 10.22L58.84 10.22L60.76 3.53L62.69 10.22L63.56 10.22L66.82 0.57ZM73.70 6.93C73.70 4.86 72.34 3.54 70.48 3.54C68.63 3.54 67.14 4.86 67.14 6.93C67.14 9.00 68.63 10.36 70.48 10.36C71.71 10.36 72.83 9.77 73.40 8.72L72.63 8.39C72.20 9.10 71.40 9.51 70.50 9.51C69.19 9.51 68.21 8.72 68.05 7.32L73.68 7.32C73.70 7.20 73.70 7.06 73.70 6.93ZM68.07 6.55C68.24 5.15 69.19 4.40 70.48 4.40C71.75 4.40 72.69 5.19 72.81 6.55ZM78.95 3.54C77.84 3.54 76.83 4.06 76.34 4.96L76.34 0L75.45 0L75.45 10.22L76.34 10.22L76.34 8.93C76.82 9.83 77.85 10.36 78.95 10.36C80.78 10.36 82.26 8.93 82.26 6.94C82.26 4.96 80.78 3.54 78.95 3.54ZM78.88 9.51C77.52 9.51 76.34 8.48 76.34 6.97C76.34 5.39 77.57 4.40 78.88 4.40C80.26 4.40 81.38 5.49 81.38 6.93C81.38 8.39 80.26 9.51 78.88 9.51ZM88.03 10.22L91.69 10.22C94.42 10.22 96.00 8.15 96.00 5.42C96.00 2.67 94.42 0.57 91.69 0.57L88.03 0.57ZM88.96 9.35L88.96 1.44L91.69 1.44C93.88 1.44 95.07 3.18 95.07 5.42C95.07 7.64 93.88 9.35 91.69 9.35ZM103.99 6.93C103.99 4.86 102.63 3.54 100.77 3.54C98.92 3.54 97.44 4.86 97.44 6.93C97.44 9.00 98.92 10.36 100.77 10.36C102.00 10.36 103.12 9.77 103.70 8.72L102.93 8.39C102.49 9.10 101.70 9.51 100.80 9.51C99.48 9.51 98.50 8.72 98.35 7.32L103.98 7.32C103.99 7.20 103.99 7.06 103.99 6.93ZM98.36 6.55C98.53 5.15 99.48 4.40 100.77 4.40C102.05 4.40 102.98 5.19 103.11 6.55ZM107.59 10.36C108.95 10.36 110.00 9.62 110.00 8.46C110.00 7.70 109.61 6.93 108.33 6.62L107.37 6.38C106.89 6.27 106.36 6.01 106.36 5.39C106.36 4.77 106.88 4.34 107.63 4.34C108.28 4.34 108.85 4.73 108.89 5.32L109.76 5.32C109.72 4.14 108.71 3.54 107.62 3.54C106.37 3.54 105.46 4.31 105.46 5.38C105.46 6.47 106.20 6.94 107.13 7.17L108.07 7.39C108.74 7.56 109.10 7.91 109.10 8.44C109.10 9.10 108.53 9.56 107.59 9.56C106.64 9.56 106.13 9.00 106.04 8.46L105.21 8.46C105.32 9.70 106.46 10.36 107.59 10.36ZM112.20 1.90C112.59 1.90 112.90 1.64 112.90 1.27C112.90 0.90 112.59 0.63 112.20 0.63C111.83 0.63 111.51 0.90 111.51 1.27C111.51 1.64 111.83 1.90 112.20 1.90ZM111.75 10.22L112.64 10.22L112.64 3.68L111.75 3.68ZM120.36 3.68L120.36 4.94C119.87 4.06 118.86 3.54 117.75 3.54C115.92 3.54 114.44 4.96 114.44 6.94C114.44 8.93 115.93 10.36 117.75 10.36C118.85 10.36 119.87 9.84 120.36 8.96L120.36 9.30C120.36 11.82 119.31 12.63 117.71 12.63C116.93 12.63 116.12 12.24 115.64 11.47L114.88 11.89C115.53 12.95 116.61 13.48 117.71 13.48C119.84 13.48 121.25 12.42 121.25 9.25L121.25 3.68ZM117.82 9.51C116.45 9.51 115.33 8.39 115.33 6.93C115.33 5.49 116.45 4.40 117.82 4.40C119.13 4.40 120.36 5.39 120.36 6.97C120.36 8.48 119.18 9.51 117.82 9.51ZM126.66 3.54C125.85 3.54 124.78 3.92 124.39 4.86L124.39 3.68L123.49 3.68L123.49 10.22L124.39 10.22L124.39 6.59C124.42 5.01 125.52 4.42 126.57 4.42C127.62 4.42 128.42 5.19 128.42 6.45L128.42 10.22L129.32 10.22L129.32 6.41C129.32 4.61 128.24 3.54 126.66 3.54Z"></path></g><!----><!----></svg>