<svg data-v-fde0c5aa="" xmlns="http://www.w3.org/2000/svg" viewBox="0 0 100 100" class="iconLeft"><!----><defs data-v-fde0c5aa=""><!----></defs><rect data-v-fde0c5aa="" fill="transparent" x="0" y="0" width="100px" height="100px" class="logo-background-square"></rect><defs data-v-fde0c5aa=""><!----></defs><g data-v-fde0c5aa="" id="abce1ac8-073c-438c-8a9e-3e5a5744a07b" fill="#000000"><path d=""></path></g><defs data-v-fde0c5aa=""><!----></defs><g data-v-fde0c5aa="" id="8bd89a84-b36a-4a67-9b01-7d4149e15edc" stroke="none" fill="#FFFFFF"><path d="M11.99 21.698h.02l.027-.001c5.169-.025 9.395-4.114 9.639-9.23.019-.14.032-.282.032-.425 0-.137-.012-.272-.03-.406-.192-5.163-4.438-9.307-9.642-9.332l-.027-.001h-.02c-5.348 0-9.698 4.35-9.698 9.698.001 5.347 4.351 9.697 9.699 9.697zm-8.246-6.833c.877.784 2.113 1.428 3.594 1.867.438 1.454 1.075 2.67 1.848 3.534a8.77 8.77 0 0 1-5.442-5.401zm8.26-11.595l.025.001c1.452.013 2.763 1.534 3.556 3.805a17.27 17.27 0 0 0-3.575-.363c-1.269 0-2.473.129-3.575.362.795-2.277 2.112-3.801 3.569-3.805zm.006 4.41c1.391 0 2.717.174 3.899.477.295 1.167.463 2.474.463 3.842 0 1.404-.177 2.742-.486 3.931-1.175.3-2.494.471-3.876.471-1.382 0-2.7-.171-3.875-.471A15.734 15.734 0 0 1 7.649 12c0-1.369.168-2.675.463-3.843a15.8 15.8 0 0 1 3.898-.477zM20.721 12c0 .127-.004.252-.01.378-.212 1.317-1.656 2.491-3.741 3.226.237-1.11.369-2.323.369-3.604a17.29 17.29 0 0 0-.35-3.514c2.083.739 3.522 1.916 3.724 3.235.004.093.008.186.008.279zm-8.692 8.73l-.025.001c-1.438-.005-2.738-1.489-3.536-3.716 1.093.229 2.286.356 3.543.356 1.257 0 2.45-.126 3.543-.356-.797 2.22-2.092 3.702-3.525 3.715zM7.05 15.604c-2.261-.797-3.771-2.11-3.771-3.562 0-1.448 1.501-2.757 3.752-3.556A17.363 17.363 0 0 0 6.682 12c0 1.281.131 2.494.368 3.604zm7.801 4.643c.766-.863 1.397-2.071 1.831-3.515 1.449-.429 2.663-1.055 3.536-1.817a8.77 8.77 0 0 1-5.367 5.332zm5.407-11.045c-.87-.772-2.09-1.407-3.548-1.842-.435-1.484-1.077-2.725-1.859-3.607a8.772 8.772 0 0 1 5.407 5.449zM9.187 3.734c-.79.882-1.438 2.13-1.876 3.626-1.491.444-2.733 1.097-3.606 1.892a8.765 8.765 0 0 1 5.482-5.518z"></path></g><!----></svg>